# xmcd
# 
# Track frame offsets:
#     150
#     17210
#     52587
#     73682
# 
# Disc length: 1274
# 
# Revision: 10
# Processed by: cddbd v1.5.2PL0 Copyright (c) Steve Scherf et al.
# Submitted via: fre:ac v1.0.31
# 
DISCID=2a04f804
DTITLE=The Prodigy - Firestarter (Single)
DYEAR=1996
DGENRE=EBM
TTITLE0=Firestarter (Edit)
TTITLE1=Firestarter (Empirion Mix)
TTITLE2=Firestarter (Instrumental Version)
TTITLE3=Molotov Bitch
EXTD=
EXTT0=
EXTT1=
EXTT2=
EXTT3=
PLAYORDER=
